<svg xmlns="http://www.w3.org/2000/svg" xmlns:xlink="http://www.w3.org/1999/xlink" version="1.1" x="0px" y="0px" viewBox="0 0 24 24" enable-background="new 0 0 24 24" xml:space="preserve" fill="#42b983"><g><path d="M8.367,17.973c-0.128,0-0.256-0.049-0.354-0.146L6.177,15.99c-0.195-0.195-0.195-0.512,0-0.707s0.512-0.195,0.707,0   l1.837,1.837c0.195,0.195,0.195,0.512,0,0.707C8.623,17.924,8.495,17.973,8.367,17.973z"></path><g><path d="M7.596,23.77C7.596,23.77,7.596,23.77,7.596,23.77c-1.603,0-3.238-0.823-4.862-2.448c-1.75-1.749-2.575-3.455-2.505-5.118    c0.097-2.257,1.787-3.68,2.342-4.148l0.101-0.085c0.144-0.137,0.359-0.183,0.543-0.107c0.885,0.367,1.632,0.553,2.22,0.553    c0.001,0,0.001,0,0.001,0c0.548,0,0.938-0.158,1.192-0.484c0.574-0.735,0.379-2.181,0.255-2.676    c-0.057-0.227,0.052-0.462,0.26-0.567C7.205,8.656,8.709,7.9,9.705,7.637c0.328-0.086,0.672-0.13,1.021-0.13    c1.071,0,1.984,0.408,2.46,0.669c3.262-2.976,7.944-7.259,8.177-7.5c0.144-0.16,0.35-0.251,0.574-0.251    c0.336,0,0.611,0.2,0.688,0.261c0.021,0.018,0.168,0.149,0.356,0.336c0.19,0.193,0.322,0.339,0.322,0.339    c0.303,0.378,0.426,0.927,0.021,1.289c-0.235,0.227-4.518,4.909-7.493,8.171c0.342,0.621,0.933,1.986,0.539,3.479    c-0.264,0.997-1.021,2.501-1.053,2.564c-0.105,0.208-0.344,0.313-0.566,0.26c-0.006-0.001-0.549-0.134-1.19-0.134    c-0.592,0-1.374,0.113-1.735,0.654c-0.398,0.597-0.288,1.686,0.318,3.147c0.077,0.187,0.035,0.402-0.108,0.545l-0.083,0.097    C10.636,22.984,9.17,23.77,7.596,23.77z M3.118,12.902c-0.545,0.466-1.817,1.637-1.89,3.345c-0.06,1.372,0.668,2.825,2.162,4.319    c1.479,1.479,2.878,2.204,4.205,2.204l0,0c1.794,0,3.021-1.316,3.509-1.884c-0.642-1.668-0.68-2.944-0.11-3.796    c0.48-0.72,1.367-1.1,2.566-1.1c0.402,0,0.768,0.043,1.029,0.085c0.232-0.488,0.646-1.399,0.813-2.031    c0.407-1.544-0.593-2.981-0.603-2.996c-0.136-0.192-0.119-0.453,0.039-0.626c1.183-1.297,6.797-7.449,7.702-8.401    c-0.054-0.072-0.148-0.173-0.268-0.294c-0.136-0.135-0.249-0.238-0.284-0.27c-0.928,0.883-7.107,6.522-8.407,7.708    c-0.173,0.158-0.433,0.174-0.625,0.039c-0.01-0.007-1.015-0.7-2.232-0.7c-0.263,0-0.521,0.033-0.765,0.097    C9.33,8.77,8.419,9.184,7.931,9.416c0.112,0.707,0.229,2.178-0.516,3.131c-0.45,0.576-1.116,0.869-1.98,0.869c0,0,0,0-0.001,0    C4.783,13.416,4.005,13.243,3.118,12.902z"></path><path d="M22.062,5.426c-0.001,0-0.002,0-0.002,0c-0.245,0-0.493-0.108-0.679-0.295L20.83,4.58c-0.195-0.195-0.195-0.512,0-0.707    c0.08-0.08,0.18-0.127,0.283-0.142c0.007-0.118,0.055-0.234,0.146-0.325c0.195-0.195,0.512-0.195,0.707,0l0.57,0.57    c0.364,0.364,0.396,0.903,0.074,1.228C22.466,5.348,22.272,5.426,22.062,5.426z"></path><path d="M19.779,3.323c-0.128,0-0.256-0.049-0.354-0.146l-0.552-0.551c-0.364-0.366-0.396-0.905-0.072-1.228    c0.142-0.142,0.336-0.221,0.547-0.221l0,0c0.245,0,0.493,0.107,0.681,0.294l0.57,0.571c0.195,0.195,0.195,0.512,0,0.707    c-0.091,0.09-0.207,0.139-0.325,0.146c-0.015,0.104-0.062,0.203-0.142,0.283C20.035,3.274,19.907,3.323,19.779,3.323z"></path><path d="M23.006,4.482c-0.245,0-0.492-0.107-0.68-0.294l-0.591-0.591c-0.195-0.195-0.195-0.512,0-0.707    c0.08-0.08,0.18-0.127,0.284-0.142c0.007-0.118,0.056-0.234,0.146-0.324c0.195-0.195,0.512-0.195,0.707,0l0.608,0.608    c0.188,0.188,0.295,0.436,0.295,0.681c0,0.21-0.079,0.405-0.223,0.547c-0.14,0.141-0.334,0.22-0.545,0.221    C23.007,4.482,23.007,4.482,23.006,4.482z"></path><path d="M20.764,2.417c-0.128,0-0.256-0.049-0.354-0.146l-0.591-0.59c-0.364-0.364-0.396-0.903-0.074-1.228    c0.325-0.324,0.863-0.291,1.229,0.073l0.608,0.608c0.195,0.195,0.195,0.512,0,0.707c-0.09,0.09-0.205,0.139-0.323,0.146    c-0.015,0.104-0.062,0.204-0.142,0.284C21.02,2.368,20.892,2.417,20.764,2.417z"></path></g><g><path d="M1.246,23.32c-0.135,0-0.263-0.056-0.355-0.148l0,0c-0.074-0.074-0.184-0.23-0.2-0.335    c-0.025-0.158,0.027-0.321,0.141-0.435l2.895-3.359c0.176-0.205,0.581-0.257,0.78-0.075L5.02,19.48    c0.096,0.096,0.152,0.237,0.15,0.373c-0.003,0.136-0.096,0.32-0.195,0.412l-3.4,2.933C1.484,23.276,1.366,23.32,1.246,23.32z"></path><polygon points="3.695,21.027 2.977,20.309 4.051,19.462 4.542,19.953   "></polygon></g><path d="M12.673,14.015c-0.133,0-0.26-0.053-0.354-0.146l-2.192-2.193c-0.097-0.097-0.149-0.229-0.146-0.365   c0.003-0.137,0.063-0.266,0.163-0.358l2.766-2.524c0.204-0.186,0.521-0.172,0.706,0.032c0.187,0.204,0.172,0.52-0.032,0.706   l-2.379,2.172l1.454,1.454l2.183-2.371c0.188-0.203,0.503-0.216,0.707-0.029c0.203,0.187,0.216,0.503,0.029,0.707l-2.536,2.754   c-0.093,0.1-0.222,0.158-0.357,0.161C12.68,14.015,12.676,14.015,12.673,14.015z"></path></g></svg>